<svg id="visual" viewBox="0 0 900 600" width="900" height="600" xmlns="http://www.w3.org/2000/svg" xmlns:xlink="http://www.w3.org/1999/xlink" version="1.1"><path d="M0 7L39 7L39 31L78 31L78 67L117 67L117 43L157 43L157 31L196 31L196 0L235 0L235 31L274 31L274 19L313 19L313 31L352 31L352 0L391 0L391 31L430 31L430 25L470 25L470 67L509 67L509 67L548 67L548 55L587 55L587 31L626 31L626 25L665 25L665 61L704 61L704 19L743 19L743 43L783 43L783 13L822 13L822 49L861 49L861 31L900 31L900 67L900 0L900 0L861 0L861 0L822 0L822 0L783 0L783 0L743 0L743 0L704 0L704 0L665 0L665 0L626 0L626 0L587 0L587 0L548 0L548 0L509 0L509 0L470 0L470 0L430 0L430 0L391 0L391 0L352 0L352 0L313 0L313 0L274 0L274 0L235 0L235 0L196 0L196 0L157 0L157 0L117 0L117 0L78 0L78 0L39 0L39 0L0 0Z" fill="#171717"></path><path d="M0 7L39 7L39 49L78 49L78 97L117 97L117 67L157 67L157 55L196 55L196 31L235 31L235 37L274 37L274 55L313 55L313 37L352 37L352 37L391 37L391 55L430 55L430 67L470 67L470 85L509 85L509 97L548 97L548 91L587 91L587 55L626 55L626 31L665 31L665 103L704 103L704 61L743 61L743 85L783 85L783 49L822 49L822 91L861 91L861 49L900 49L900 79L900 65L900 29L861 29L861 47L822 47L822 11L783 11L783 41L743 41L743 17L704 17L704 59L665 59L665 23L626 23L626 29L587 29L587 53L548 53L548 65L509 65L509 65L470 65L470 23L430 23L430 29L391 29L391 0L352 0L352 29L313 29L313 17L274 17L274 29L235 29L235 0L196 0L196 29L157 29L157 41L117 41L117 65L78 65L78 29L39 29L39 5L0 5Z" fill="#161616"></path><path d="M0 73L39 73L39 85L78 85L78 109L117 109L117 97L157 97L157 103L196 103L196 61L235 61L235 67L274 67L274 85L313 85L313 115L352 115L352 145L391 145L391 91L430 91L430 79L470 79L470 157L509 157L509 127L548 127L548 97L587 97L587 79L626 79L626 97L665 97L665 181L704 181L704 109L743 109L743 91L783 91L783 61L822 61L822 97L861 97L861 127L900 127L900 91L900 77L900 47L861 47L861 89L822 89L822 47L783 47L783 83L743 83L743 59L704 59L704 101L665 101L665 29L626 29L626 53L587 53L587 89L548 89L548 95L509 95L509 83L470 83L470 65L430 65L430 53L391 53L391 35L352 35L352 35L313 35L313 53L274 53L274 35L235 35L235 29L196 29L196 53L157 53L157 65L117 65L117 95L78 95L78 47L39 47L39 5L0 5Z" fill="#141414"></path><path d="M0 187L39 187L39 127L78 127L78 151L117 151L117 181L157 181L157 109L196 109L196 109L235 109L235 121L274 121L274 163L313 163L313 139L352 139L352 181L391 181L391 103L430 103L430 205L470 205L470 205L509 205L509 205L548 205L548 109L587 109L587 199L626 199L626 103L665 103L665 301L704 301L704 157L743 157L743 157L783 157L783 145L822 145L822 193L861 193L861 223L900 223L900 133L900 89L900 125L861 125L861 95L822 95L822 59L783 59L783 89L743 89L743 107L704 107L704 179L665 179L665 95L626 95L626 77L587 77L587 95L548 95L548 125L509 125L509 155L470 155L470 77L430 77L430 89L391 89L391 143L352 143L352 113L313 113L313 83L274 83L274 65L235 65L235 59L196 59L196 101L157 101L157 95L117 95L117 107L78 107L78 83L39 83L39 71L0 71Z" fill="#131313"></path><path d="M0 187L39 187L39 169L78 169L78 169L117 169L117 193L157 193L157 133L196 133L196 133L235 133L235 133L274 133L274 187L313 187L313 157L352 157L352 193L391 193L391 145L430 145L430 241L470 241L470 253L509 253L509 205L548 205L548 121L587 121L587 229L626 229L626 103L665 103L665 301L704 301L704 199L743 199L743 181L783 181L783 163L822 163L822 229L861 229L861 235L900 235L900 145L900 131L900 221L861 221L861 191L822 191L822 143L783 143L783 155L743 155L743 155L704 155L704 299L665 299L665 101L626 101L626 197L587 197L587 107L548 107L548 203L509 203L509 203L470 203L470 203L430 203L430 101L391 101L391 179L352 179L352 137L313 137L313 161L274 161L274 119L235 119L235 107L196 107L196 107L157 107L157 179L117 179L117 149L78 149L78 125L39 125L39 185L0 185Z" fill="#111111"></path><path d="M0 265L39 265L39 361L78 361L78 217L117 217L117 253L157 253L157 199L196 199L196 319L235 319L235 271L274 271L274 331L313 331L313 427L352 427L352 337L391 337L391 229L430 229L430 409L470 409L470 421L509 421L509 277L548 277L548 259L587 259L587 259L626 259L626 355L665 355L665 307L704 307L704 325L743 325L743 283L783 283L783 229L822 229L822 277L861 277L861 253L900 253L900 295L900 143L900 233L861 233L861 227L822 227L822 161L783 161L783 179L743 179L743 197L704 197L704 299L665 299L665 101L626 101L626 227L587 227L587 119L548 119L548 203L509 203L509 251L470 251L470 239L430 239L430 143L391 143L391 191L352 191L352 155L313 155L313 185L274 185L274 131L235 131L235 131L196 131L196 131L157 131L157 191L117 191L117 167L78 167L78 167L39 167L39 185L0 185Z" fill="#0f0f0f"></path><path d="M0 451L39 451L39 391L78 391L78 421L117 421L117 421L157 421L157 487L196 487L196 433L235 433L235 415L274 415L274 475L313 475L313 457L352 457L352 457L391 457L391 523L430 523L430 433L470 433L470 505L509 505L509 427L548 427L548 421L587 421L587 517L626 517L626 457L665 457L665 457L704 457L704 373L743 373L743 451L783 451L783 361L822 361L822 469L861 469L861 463L900 463L900 439L900 293L900 251L861 251L861 275L822 275L822 227L783 227L783 281L743 281L743 323L704 323L704 305L665 305L665 353L626 353L626 257L587 257L587 257L548 257L548 275L509 275L509 419L470 419L470 407L430 407L430 227L391 227L391 335L352 335L352 425L313 425L313 329L274 329L274 269L235 269L235 317L196 317L196 197L157 197L157 251L117 251L117 215L78 215L78 359L39 359L39 263L0 263Z" fill="#0d0d0d"></path><path d="M0 463L39 463L39 409L78 409L78 463L117 463L117 433L157 433L157 541L196 541L196 487L235 487L235 427L274 427L274 517L313 517L313 487L352 487L352 499L391 499L391 559L430 559L430 463L470 463L470 511L509 511L509 475L548 475L548 481L587 481L587 523L626 523L626 499L665 499L665 457L704 457L704 397L743 397L743 505L783 505L783 415L822 415L822 505L861 505L861 499L900 499L900 445L900 437L900 461L861 461L861 467L822 467L822 359L783 359L783 449L743 449L743 371L704 371L704 455L665 455L665 455L626 455L626 515L587 515L587 419L548 419L548 425L509 425L509 503L470 503L470 431L430 431L430 521L391 521L391 455L352 455L352 455L313 455L313 473L274 473L274 413L235 413L235 431L196 431L196 485L157 485L157 419L117 419L117 419L78 419L78 389L39 389L39 449L0 449Z" fill="#0b0b0b"></path><path d="M0 493L39 493L39 451L78 451L78 475L117 475L117 481L157 481L157 565L196 565L196 535L235 535L235 457L274 457L274 529L313 529L313 541L352 541L352 547L391 547L391 565L430 565L430 481L470 481L470 529L509 529L509 475L548 475L548 487L587 487L587 547L626 547L626 499L665 499L665 505L704 505L704 439L743 439L743 535L783 535L783 433L822 433L822 535L861 535L861 517L900 517L900 493L900 443L900 497L861 497L861 503L822 503L822 413L783 413L783 503L743 503L743 395L704 395L704 455L665 455L665 497L626 497L626 521L587 521L587 479L548 479L548 473L509 473L509 509L470 509L470 461L430 461L430 557L391 557L391 497L352 497L352 485L313 485L313 515L274 515L274 425L235 425L235 485L196 485L196 539L157 539L157 431L117 431L117 461L78 461L78 407L39 407L39 461L0 461Z" fill="#080808"></path><path d="M0 553L39 553L39 475L78 475L78 481L117 481L117 523L157 523L157 565L196 565L196 547L235 547L235 463L274 463L274 535L313 535L313 583L352 583L352 559L391 559L391 577L430 577L430 511L470 511L470 571L509 571L509 523L548 523L548 535L587 535L587 571L626 571L626 523L665 523L665 547L704 547L704 481L743 481L743 541L783 541L783 487L822 487L822 583L861 583L861 517L900 517L900 547L900 491L900 515L861 515L861 533L822 533L822 431L783 431L783 533L743 533L743 437L704 437L704 503L665 503L665 497L626 497L626 545L587 545L587 485L548 485L548 473L509 473L509 527L470 527L470 479L430 479L430 563L391 563L391 545L352 545L352 539L313 539L313 527L274 527L274 455L235 455L235 533L196 533L196 563L157 563L157 479L117 479L117 473L78 473L78 449L39 449L39 491L0 491Z" fill="#050505"></path><path d="M0 553L39 553L39 541L78 541L78 565L117 565L117 541L157 541L157 601L196 601L196 559L235 559L235 523L274 523L274 553L313 553L313 595L352 595L352 583L391 583L391 583L430 583L430 601L470 601L470 571L509 571L509 589L548 589L548 601L587 601L587 571L626 571L626 523L665 523L665 589L704 589L704 547L743 547L743 583L783 583L783 541L822 541L822 601L861 601L861 517L900 517L900 595L900 545L900 515L861 515L861 581L822 581L822 485L783 485L783 539L743 539L743 479L704 479L704 545L665 545L665 521L626 521L626 569L587 569L587 533L548 533L548 521L509 521L509 569L470 569L470 509L430 509L430 575L391 575L391 557L352 557L352 581L313 581L313 533L274 533L274 461L235 461L235 545L196 545L196 563L157 563L157 521L117 521L117 479L78 479L78 473L39 473L39 551L0 551Z" fill="#030303"></path><path d="M0 601L39 601L39 601L78 601L78 601L117 601L117 601L157 601L157 601L196 601L196 601L235 601L235 601L274 601L274 601L313 601L313 601L352 601L352 601L391 601L391 601L430 601L430 601L470 601L470 601L509 601L509 601L548 601L548 601L587 601L587 601L626 601L626 601L665 601L665 601L704 601L704 601L743 601L743 601L783 601L783 601L822 601L822 601L861 601L861 601L900 601L900 601L900 593L900 515L861 515L861 599L822 599L822 539L783 539L783 581L743 581L743 545L704 545L704 587L665 587L665 521L626 521L626 569L587 569L587 599L548 599L548 587L509 587L509 569L470 569L470 599L430 599L430 581L391 581L391 581L352 581L352 593L313 593L313 551L274 551L274 521L235 521L235 557L196 557L196 599L157 599L157 539L117 539L117 563L78 563L78 539L39 539L39 551L0 551Z" fill="#000000"></path></svg>